<svg version="1" xmlns="http://www.w3.org/2000/svg" width="308" height="308" viewBox="0 0 231.000000 231.000000"><path d="M26.2 10.7c.5 1.9-1.5 7.2-2.8 7.7-.9.3-1.4 1.2-1.1 1.9.2.6-.3 2.1-1.2 3.1-1.5 1.8-1.5 1.9.2 1.3.9-.4 1.7-.2 1.7.2 0 .5-.5 1.1-1.2 1.3-2.4.8-1.2 16.8 1.4 16.8.3 0 .4.9.1 2-.7 2.7-1.8 2.5-4.1-.8-1.5-2-2-4.5-2.1-10.2-.1-4.1-.5-10.2-.9-13.5l-.7-6-1.4 4.7c-.7 2.7-1.8 4.8-2.3 4.8-.5 0-.8.8-.6 1.7.1 1-.2 2.5-.7 3.3-1.3 2.1-1.6 6.2-.3 5.4.6-.4.5.3-.2 1.6-1 1.8-.9 2.4.1 3.1.8.5.9.9.4.9-.6 0-1.1.9-1.1 2s.4 2 .9 2 .6 1.1.3 2.4c-.3 1.4-.1 2.6.5 2.8.9.3.9 1 0 2.6-1 1.8-.9 2.1.4 1.6 1.8-.7 2 1.6.3 3.5-1.1 1.1-1 1.3.4.8 2.4-.8 2.8 1.3 1 4.8-1.4 2.7-1.4 2.9 0 1.7 1.3-1 1.7-1 2.1.2.4.9.2 1.8-.3 2.1-.6.4-1 1.1-1 1.6 0 .6.5.7 1.1.3.8-.5 1 .1.5 1.9-.3 1.4-.1 2.9.4 3.2.8.5.7 1.2-.2 2.3-1.1 1.3-1 1.5.5.9s1.7-.3 1.2 1.6c-.4 1.2-.9 3-1.1 3.9-.4 1.2 0 1.8 1 1.8 1.8 0 2 1.3.7 3.9-.7 1.3-.6 1.8.5 1.8.7 0 1.4-.5 1.4-1 0-.6.3-.8.6-.5.3.4-.2 2-1 3.7-1.8 3.3-2.3 6.7-.6 4.1 1.4-2.2 2.2-.6 1.1 2.4-.8 1.8-.7 2.6 0 2.6s.9 1.2.7 3c-.3 2.3-.2 2.7.8 1.9 1-.8 1.2-.2.8 2.6-.2 2 0 3.4.5 3.1.5-.3 1.1.3 1.4 1.4.3 1.1.2 2-.2 2s-.8.6-.8 1.4c0 .8.6 1.2 1.5.8 1.2-.4 1.4.2.9 3.2-.5 3-.3 3.7.8 3.2 1.1-.4 1.5.2 1.5 2.4 0 1.7.5 3 1.1 3 .6 0 .9.9.6 2-.3 1.1-.1 2 .4 2s.9.9.9 2c0 1.3.5 1.8 1.6 1.3 1.2-.4 1.4 0 .8 2.1-.4 1.6-.2 2.6.5 2.6.6 0 1.1-.6 1.2-1.3 0-.6.5-.1 1.1 1.3.6 1.4 1 3.4.9 4.5-.3 1.6 0 1.7 1.2.7 1.9-1.6 4 .7 3 3.3-.5 1.4-.3 1.7 1 1.2s1.9.2 2.6 2.6c.5 1.8 1 2.6 1 1.9.2-2.4 2.1-.1 2.1 2.4 0 2.1.4 2.4 2 1.9s2-.2 2 1.4c0 1.4.5 1.9 1.5 1.5 1-.4 1.5 0 1.5 1.1 0 1.3.6 1.6 2.3 1.3 2.1-.4 2.3-.1 2 2.1-.4 2-.2 2.3.6 1.2.8-1.2 1.2-1 2.2 1.1.6 1.5 1.7 2.4 2.4 2.1.8-.2 1.6.5 2 1.8.5 1.5.9 1.8 1.5.9s1.1-.7 1.9.9c.7 1.2 1.6 1.9 2 1.6.5-.2 1.4.2 2.1 1 .7.8 1.8 1.5 2.5 1.5.6 0 1.2.7 1.2 1.4 0 1.1-.5 1.2-1.8.5-1.9-1-6-1.6-11.7-1.8-1.9-.1-3.1-.5-2.7-1.1.4-.6-.1-.7-1.1-.3-1.4.5-1.6.3-1-1.3.6-1.5.5-1.7-.5-.7-1.7 1.7-2.9 1.6-2.9-.2 0-1-.7-1.5-1.7-1.3-1.1.2-1.7-.2-1.5-1 .1-.7-.5-1.2-1.5-1-1 .2-1.7-.2-1.6-.7.1-.6-.7-1.2-1.8-1.2-1-.1-2.6-.9-3.5-1.7-.9-.9-1.9-1.4-2.4-1.1-.5.3-1.1.1-1.5-.5-.3-.5-1.7-.7-3.1-.4-1.3.3-2.4.2-2.4-.2 0-.5-1.2-1-2.7-1-1.6-.1-4.6-.4-6.8-.8l-4-.6 3.7 1.6c2.1.9 4 2.4 4.3 3.3.6 2.1 5.6 5.1 8.3 5.1 4.2 0 7 2.8 4.4 4.4-1.6 1-7.2 1.6-7.2.8 0-.4-1.8-.6-4-.4-2.2.2-4 .9-4 1.5s-.6.3-1.3-.6c-.6-.9-2.3-1.8-3.7-1.9-1.4-.2-3.1-.7-3.7-1.1-2-1.2-5.2-1.7-5.7-.8-.3.5-2.9.7-5.8.5l-5.3-.3 3.7 1.2c2 .6 4.8 2.3 6.2 3.6 1.4 1.4 2.6 2 2.6 1.5s.7-.1 1.5 1c.7 1 1.8 1.5 2.4 1.2.5-.4 1.2-.3 1.5.2.3.5 2.1.8 4.1.7 1.9 0 3.5.2 3.5.5 0 .4 2.5.6 5.7.6 3.4-.1 5.8.3 6 1.1.9 2.7-11 3.7-20 1.7-5.4-1.3-7.5-1.4-8.9-.5-1.3.8-2.4.8-3.8.1-1-.5-2.9-1-4.2-.9-1.7 0-1.3.4 1.9 1.7 2.2.9 5.3 2.9 6.6 4.4 1.7 1.8 3.2 2.6 4.2 2.1 1-.3 2.1 0 2.6.8.7 1.2.9 1.2.9-.1.1-1.1.4-1 1.5.4.8 1.1 1.5 1.5 1.5.9s1.7-.9 4.2-.7c3 .2 4.6-.2 5.6-1.4.7-.9 1.1-1.2.8-.6-.3.7.1 1.4.9 1.8.8.3 1.5.2 1.5-.3 0-1.4 4.9-1 6.1.5.9 1.1.5 1.6-1.7 2.5-3.3 1.3-15.2 1.7-20.4.7-2.4-.5-3.9-.3-5.1.8-1.3 1.2-2.5 1.3-6 .5-3.9-.9-4.2-.8-2.5.5 1.1.8 2.6 1.4 3.2 1.4 2.4 0 6.4 2.3 6.4 3.7 0 .7.5 1.3 1.1 1.3.5 0 .8-.4.5-.8-.2-.4.4-.8 1.4-.8 1 0 1.7.4 1.4.7-.2.4 0 1 .6 1.4.5.3 1 .1 1-.5 0-.7.7-.8 1.7-.3 1.8.9 4.8.8 9.3-.1 3.2-.6 6-.9 8.4-.7 1.4.1 1.6.4.7 1.4-1.7 2.1-8.4 3.8-14.1 3.6-3.5-.2-5.5.2-6 1.1-.6.9-2.6 1.4-5.7 1.3l-4.8-.2 5.7 1.6c3.6.9 5.8 2.1 5.8 2.9 0 1.9 1 1.8 2.7-.4.7-.9 1.3-1.3 1.2-.7-.3 2.2.2 2.9 1 1.7.7-1.2 1.1-1.2 2.2.1 1.1 1.2 1.6 1.2 2.7 0 1.1-1.1 1.6-1 3 .4 1.6 1.6 1.7 1.6 2 0 .4-2 1.3-2.2 3-.5.9.9 1.2.8 1.2-.6s.6-1.7 2.5-1.4c1.3.3 2.6 0 2.8-.6.2-.6 1.6-1 3-.8 1.5.1 2.7-.3 2.7-.8 0-.6 1.1-1 2.4-1 1.4 0 2.8-.5 3.1-1.1.4-.6 1.3-.8 2-.5.7.2 1.7 0 2.4-.7 1-1 4.3-1.7 8.9-1.7 1.2 0 2.2-.5 2.2-1.1 0-.7 1.1-.8 3.1-.4 2.2.5 2.9.4 2.5-.4-.5-.7.2-1 1.8-.9 1.5.1 2.6.6 2.6 1s.5.8 1.1.8c.5 0 .7-.5.3-1.2-.5-.8.2-.9 2.5-.5 2 .4 3 .3 2.6-.3-.6-.9.8-1.4 2.9-1.1.4.1 1.4-.3 2.2-.9.7-.7 2.3-.9 3.5-.5 1.4.5 1.9.4 1.5-.4-.5-.7.2-1.1 1.8-1.1 3.1 0 7.8-2 8.9-3.7.5-.8 1.8-1.1 3.1-.7 1.6.4 2.5 0 3-1.1.4-1.1 1.2-1.4 2.6-1 1.4.5 2 .2 2-.9 0-.9.8-1.6 1.9-1.6 1 0 2.1-.7 2.5-1.5.3-.8.9-1.5 1.3-1.4 1.9.3 3.4-.2 2.9-1-.8-1.3 1.6-2.7 4.2-2.5 1.6.1 2.1-.3 1.8-1.2-.3-.8-.1-1.5.4-1.5.6-.1 1.6-.2 2.3-.3.6-.1 1.1-.9 1.1-1.9-.1-1.2.7-2 2.6-2.4 1.6-.3 3.1-1.1 3.4-1.9.3-.8 1.5-1.4 2.6-1.4s2-.5 2-1c0-.6-.8-1-1.7-1-1.7-.1-1.7-.1 0-1.1 1.1-.6 2.6-1.2 3.5-1.4 1-.1 1.6-1 1.4-1.8-.2-1 .7-1.9 2.3-2.3 1.4-.3 2.5-1 2.5-1.6 0-.5-.6-.6-1.2-.3-.7.4-.4-.1.6-.9 1.1-.9 2.3-1.6 2.8-1.6.4 0 .8-.9.8-2s.6-2 1.4-2c.8 0 1.8-.9 2.1-2 .3-1.1 1.1-2 1.6-2s1.4-1.1 1.9-2.5 1.7-2.8 2.6-3.2c1.3-.5 1.3-.7.2-1.4-1-.7-.7-1.1 1-1.5 1.3-.4 2.1-1.2 1.9-1.8-.3-.7.1-2 .8-3 1.3-1.7 1.4-1.7 2.4.2 1.2 2.2.5 5.2-1 5.2-.6 0-.5.8.1 1.9 1.2 2.4 1.3 3.4.1 2.7-1.1-.7-2.3 5.2-1.4 6.7.3.6.1.7-.5.3-.7-.4-1.2-.1-1.2.6 0 .9-.3.9-1-.2-.8-1.2-1-1.1-1 .7 0 1.3-.4 2.3-1 2.3-.5 0-1 .6-1 1.4 0 .8-.7 1.6-1.5 2-.8.3-1.5 1.3-1.5 2.1 0 .9-.4 1.3-1 1-.5-.3-1 .3-1 1.4 0 1.2-.4 2.1-1 2.1-.5 0-1 .9-1 2s-.4 2-.9 2-1.6 3.3-2.6 7.2c-.9 4-1.9 8.2-2.2 9.3-.4 1.5-.2 1.7.6.9.6-.6 1.3-2.1 1.6-3.4.5-2.7 1-3.3 3.2-3.6.9-.2 2.1-1.1 2.7-2.1 1-1.8 1.2-2.4 1.5-4.4 0-.5.6-.7 1.2-.3.7.4.9 0 .5-1.4-.4-1.2 0-2.6 1-3.6 1.5-1.5 1.8-1.5 3.3-.2 1.8 1.6 2.6 6.9 1.4 8.9-.4.6-.8 2-1 3.2-.7 4.8-1.2 7.3-2.7 11.7-.8 2.5-1.2 4.9-.8 5.2.3.4.5 2.8.4 5.4l-.1 4.7 1.5-4.3c.9-2.3 2-4.2 2.6-4.2.5 0 1.6-.7 2.4-1.5 1.2-1.2 1.2-1.5.2-1.5-.9-.1-.9-.4.3-1.3.9-.7 1.4-1.8 1.2-2.5-.3-.6 0-1.2.6-1.2s1.1-.5 1.1-1.1c0-.5-.4-.7-1-.4-1.5.9-1.2-.5.5-2.2 1.2-1.2 1.3-1.8.4-2.9-.9-1.1-.9-1.4 0-1.4.7 0 1-.8.6-1.9-.8-2.5 2.2-5.1 3.6-3 1.2 1.8.5 10.4-1 14.3-1.5 3.9-1.1 10.2.7 9.8.8-.1 1.1.2.7.8-1.3 2.1-2.3 7-1.5 7 .5 0 1.1-1.4 1.5-3 .4-1.7 1.8-3.8 3.1-4.6 1.3-.9 2.1-2 1.8-2.6-.3-.5 0-1.6.8-2.5 1.1-1.5 1.1-1.6-.7-1-1.9.7-1.9.7-.1-.7 1.1-.9 1.6-2.1 1.2-3.1-.3-.9-.3-2.2.1-2.8.5-.7.8-3.6.8-6.6 0-3.1.5-5.6 1.1-5.8 1-.3 4 8 3.6 10-.1.4-.4 1.6-.5 2.7-.2 1.1-.6 2.3-1 2.6-1.4 1.4-.7 6.1 1.2 7.8 1.1 1 1.8 2.6 1.6 3.7-.2 1 0 2.1.6 2.4.5.4.9-.7.9-2.3 0-1.5.9-3.8 1.9-4.9 1.5-1.6 1.7-2.3.8-3.2-.9-.9-.9-1.4.2-2 .7-.5 1-1.4.6-2-.4-.7-.1-1.8.5-2.6.9-1.1.9-1.5.1-1.5-.9 0-.9-.5-.1-2s.8-2-.1-2c-.6 0-.9-.9-.6-2 .3-1.1 0-2-.5-2-.6 0-.5-.6.2-1.5 1-1.2 1-1.5-.3-1.5-.9 0-1.4-.7-1.2-1.8.2-.9.4-2 .4-2.4.1-.4.7-.5 1.4-.2 1.9.7 4.9 9.7 5.1 15 0 2.4.5 4.4.9 4.4.5 0 .5.5.2 1-.3.6.1 1.3.9 1.6 1 .4 1.6 1.8 1.6 3.8 0 1.7.4 3.7.9 4.5 1.1 1.7 2-5.3.9-7.3-.5-.9-.2-1.3 1-1.2 1.1.1 1.7-.6 1.7-1.9.1-1.1.4-2.5.8-3.2.4-.6.1-1.3-.5-1.6-1-.4-1.1-.7 0-1.8 1.6-1.7 1.5-3-.2-2.3-.8.3-1.6-.3-1.9-1.5-.3-1.2-.1-1.9.4-1.5 1.3.7 1.1-1-.2-2.3-.8-.8-.8-1.3 0-1.7 1.2-.8 1.5-2.7.3-2.5-2.4.4-3.2-.2-2.4-1.8.7-1.2.4-2.1-1.2-3.4-1.1-1-1.6-1.8-1-1.9.7 0 1.5-.7 1.8-1.6.6-1.5.4-1.5-1-.3-1.6 1.3-1.7 1.1-1.1-1.8.4-2.1.2-3.3-.6-3.6-.9-.3-.9-.9 0-2.5 1.1-1.8 1-2-.3-1.5-1.4.5-1.5.1-.9-2.7.5-2.3.4-3-.4-2.6-1.4.9-1.5-1.9-.1-4.4.8-1.5.6-1.7-1-1.3-2.3.6-2.6-.7-.7-2.6 1-1.1 1-1.4 0-1.8-1.5-.6-1.7-3.3-.3-3.3.6 0 1-.4 1-1 0-.5-.6-.7-1.4-.4-1.5.6-1.6-2.3-.1-5.9.6-1.3.3-1.6-.9-1.1-1.8.7-2.1-.8-.6-3.6.9-1.6.8-1.8-.6-1.3-1.5.5-1.6.2-1.1-2.5.5-2.3.3-3-.6-2.6-1 .3-1.2-.5-.9-3 .2-1.8-.1-3.7-.7-4-.6-.4-.8-2-.4-3.7.5-2.4.3-2.8-1.1-2.3-1.3.5-1.5.1-1-2.7.4-2.3.3-3-.4-2-1.3 1.7-2.1.3-1.7-3.1.2-2.1 0-2.5-1.2-2.1-1.3.5-1.5 0-.9-3 .6-3.1.4-3.6-.9-3.1-1.5.6-1.9-.4-1.6-3.9.1-.9-.4-1.7-1.3-1.7-1.1 0-1.4-.8-1.1-2.9.2-2.3 0-2.8-1.1-2.4-1 .4-1.4-.3-1.4-2.1 0-1.5-.5-2.5-1.2-2.3-.7.1-1.4-.8-1.6-2-.2-1.4-.8-2-1.8-1.6-1 .4-1.4-.2-1.4-2.1 0-1.4-.6-2.6-1.2-2.7-2.6-.1-5-.8-5.6-1.5-.4-.4.1-.4 1.1-.1 1.2.5 1.7.1 1.7-1.3 0-1.2-.5-1.7-1.4-1.4-.8.3-1.7 0-2.1-.5-.3-.6-1.1-.9-1.6-.5-.5.3-.8.2-.7-.3.4-1.7-1.4-5.3-2.8-5.3-.8 0-1.4-.9-1.4-2.1 0-1.3-.5-1.9-1.3-1.6-.7.3-2.3-.6-3.6-1.9-1.3-1.3-2.9-2.4-3.5-2.4-.7 0-2.1-.9-3.1-2-1.8-2-1.7-2 1.5-2 4.1 0 11 2 11 3.2 0 .5.5.6 1 .3.6-.3 1 .2 1 1.2 0 1.4.2 1.5.9.4.6-.9 1.1-1 1.5-.2.4.6.5 1.5.2 2-.3.4.6.6 2.1.3 2.2-.4 2.5-.2 2 1.2-.4.9-.3 1.5.2 1.2.5-.3 1.9.2 3.2 1.2 3.4 2.5 6.7 4.2 7.9 4.2.6 0 .8-.6.4-1.3-.4-.7-.3-.9.2-.4s.9 1.4.9 2c0 .7.5 1.2 1 1.3.6 0 2.1.5 3.5 1.1 1.4.6 3.6.9 5 .8 1.4-.1 3.5.1 4.7.6 1.1.4 3.4.4 5 0l2.8-.8-3.1-.7c-1.9-.4-3.4-1.5-3.7-2.6-.5-2.1-4.4-4-8.1-4-3.1 0-5.1-2.3-3.3-3.9 1.9-1.5 10.7-1 10.7.7 0 .7.4 1.1.9.7 1.1-.6 6.2 1.5 7.3 2.9.4.6 4.2 1.1 8.4 1.1 6 .1 7.3-.1 5.9-.9-1-.6-2.9-2.1-4.2-3.4-1.3-1.2-2.8-2.2-3.4-2.2-.5 0-1.2-.7-1.5-1.5-.4-.8-1-1.5-1.6-1.5-.5 0-.6.5-.2 1.1.4.8 0 .8-1.5 0-1.1-.7-2.1-1.6-2.1-2.2 0-.6-.5-.7-1-.4-.6.4-1.8.1-2.7-.7-.9-.7-3.2-1.3-5.2-1.3-2.7 0-3.7-.5-3.9-1.9-.4-1.8.4-1.9 11.3-.2.5 0 2.8 1 5.1 2.2 3.6 1.9 4.6 2 7.7.9 1.9-.6 5-1 6.8-.8l3.4.4-3.2-1.5c-1.7-.8-4.1-2.4-5.2-3.5-1.2-1.2-2.9-2.2-3.8-2.2-1.9-.1-3.4-.4-4.3-.8-.3-.2-1.4-.4-2.5-.6-1.1-.2-2.1-.9-2.3-1.5-.3-.8-.8-.8-1.7 0-.9.8-1.5.8-2 0-1-1.7-2.8-1.1-2.1.7.5 1.3.1 1.2-1.7-.5-1.6-1.5-2.7-2-3.1-1.3-.6.9-2.5.9-5.4.2-.1-.1.3-.7 1-1.4 2-2.2 18.8-1.1 19.6 1.2.3.9 5 .2 5.7-.9.2-.4 2.4-.4 4.7 0 5.8 1.1 5.9.6.3-1.5-2.5-1-4.9-2.3-5.3-2.9-1.1-1.8-5.2-3.7-6.3-3-.5.3-1.6 0-2.4-.6-.8-.7-2.2-1-3-.6-.9.3-1.8-.1-2.2-1-.5-1.3-.8-1.3-2.5.3-1.8 1.6-1.9 1.6-1.2-.3.6-1.5.4-1.7-.6-.7-.9.8-1.9.9-3.2.2-1.3-.7-1.8-.6-1.8.2s-.4.8-1.5-.1c-2.6-2.1 1.8-4.4 7.9-4.1 7.8.3 8.6.5 8.6 1.4 0 .5 1.1.2 2.5-.7 1.3-.9 4.4-1.6 6.7-1.7l4.3-.1-4.5-1.5c-2.5-.9-5.1-2.4-5.7-3.4-1.1-1.4-3-1.8-5.3-.9-.3.1-.9.1-1.5 0-.5-.1-3.4-.3-6.3-.4-4.1-.1-5.1.2-4.7 1.3.4 1 .2 1.1-.7.4-1.8-1.4-6.8-.9-7.8.7-.7 1.1-1.2 1.1-2.2.2-1-.8-1.8-.8-2.5-.1-.8.8-1.8.7-3.4-.2-2.1-1.1-2.2-1-1.2.2 1 1.2.8 1.5-1 1.4-1.2 0-2.7-.3-3.3-.8-.7-.4-1.4 0-1.8.8-.7 1.8-3.7 2-5.5.2-1-1-1.1-.9-.6.4.7 1.9-3.1 3.4-4 1.5-.3-.8-.7-.8-1.1.1-.3.7-1.2 1.3-2 1.3s-1.4-.6-1.4-1.3c-.1-.7-.6-.5-1.4.6-1 1.3-2.1 1.6-4 1.1-2-.5-2.6-.2-2.6 1 0 1.8-1.5 2.2-2.5.6-.9-1.5-2.5-1.2-2.5.5s-3.5 2-4.5.4c-.5-.6-1.1-.4-1.9.7-1.1 1.4-1.6 1.5-3.6.4s-2.2-1-1.6.5c.5 1.5.2 1.7-2.4 1.2-1.6-.4-3-.3-3 .2 0 .4-1.6.7-3.5.6-2 0-3.7.5-3.9 1.2-.4.9-1.6 1.1-3.7.6-2.3-.4-3-.3-2.5.5.4.7.1 1.2-.6 1.3-.7.1-2.2.2-3.3.3-1.1 0-1.9.6-1.8 1.3.2.7-1.1.9-4 .6-3.1-.3-3.8-.2-2.7.6 1.2.8.7 1.1-2.2 1.1-2.9 0-3.6.3-3.2 1.5.6 1.5-.4 1.9-3.8 1.6-1.1-.1-1.8.4-1.8 1.4 0 1.1-.7 1.4-2.5 1.1-2.6-.5-3.5.8-1.2 1.7.6.3-.4.6-2.4.6-2.9.1-3.6.5-3.5 1.8.1 1.3-.8 1.9-2.7 2.1-1.9.2-2.7.8-2.4 1.7.4.8-.5 1.5-2.4 1.9-2 .4-2.7 1-2.3 2.1.5 1.1-.1 1.5-2.1 1.5-1.9 0-2.6.4-2.2 1.4.4.9-.3 1.6-1.9 2-1.4.4-2.2 1.1-1.9 1.6.3.5-.9 1.7-2.7 2.6-3 1.5-3.1 1.8-1.3 2.4 2.1.8 2 .9-3 2.5-.8.2-1.2 1-.9 1.8.3.8-.6 1.8-2.3 2.6-2 .9-2.4 1.5-1.4 2.1 1.1.6.9 1.1-.8 1.9-1.2.7-1.9 1.6-1.6 2.1.3.6.2 1.7-.3 2.6-1.1 1.9-1.9 1-3.2-3.6-.5-1.9-.5-3 .1-3s.8-.9.4-1.9c-.3-1.1-.1-2.2.5-2.6.5-.3 1-1.5 1-2.6s.4-1.7 1-1.4c.5.3.7 0 .4-.8-.3-.8.1-2.1.8-2.8.8-.8 1.7-2.3 2.2-3.4.6-1.6.9-1.7 1.6-.5.7 1.1 1 .8 1-1.3 0-1.8.5-2.7 1.6-2.7.8 0 1.2-.5.9-1-.3-.6.1-1.3.9-1.6.9-.3 1.6-1.2 1.6-2 0-.7.9-3 2-4.9 1.1-2 1.8-4 1.5-4.6-.4-.5-.2-.9.3-.9.6 0 1-1 .9-2.3 0-1.2.3-4.2.7-6.7l.8-4.5-2 3.5c-1 1.9-2.9 4-4.2 4.7-2.9 1.4-4 3.2-4 6.4 0 1.4-.9 3.4-2 4.4-1.8 1.6-2 1.6-2.6.1-.3-.9-.4-2.3-.1-3.1.4-.8.2-1.7-.3-2-.6-.3-.5-1.6 0-3.1.5-1.3.9-3 .7-3.7-.1-.7.4-1.1 1.1-.9.8.1 1.1-.2.7-.8-.4-.6-1.4-.9-2.3-.5-1.3.5-1.2.1.4-1.7 4.2-4.7 5.6-7.9 5-11.2-1-4.8-1-5-.2-8 .6-2.5.5-2.8-.7-1.7-.8.6-1.8 2.2-2.1 3.5-.3 1.2-1.7 2.8-3.1 3.6-1.4.7-2.4 1.9-2.3 2.6.2.7-.6 2-1.7 2.8-1.3 1-1.5 1.5-.6 1.6 1.1 0 1.1.3.1 1.5-.7.8-.9 1.5-.5 1.5s.2.7-.5 1.5-1.3 3.6-1.4 6.2C42.5 41 41.2 44 40 42c-1.1-1.8-1.2-11.8 0-14 .5-1 1-3.8.9-6.2v-8.1c.1-4.3-1.3-4.2-2.2.1-.4 1.8-1.4 3.1-2.6 3.5-1.4.3-2.1 1.3-2.1 2.9 0 1.4-.3 2.8-.6 3.1-.4.3-.8 2.1-.9 3.9-.1 1.8-.5 4.3-.9 5.5-.4 1.3-.4 2.3.1 2.3s.8 1.6.8 3.5c-.1 2 .2 3.8.7 4.1 1 .7.1 2.4-1.3 2.4-1.3 0-3.8-6-4.4-10.5-.2-1.9 0-3.5.6-3.5.5 0 .7-1 .4-2.3-.4-1.2-.2-3.4.4-4.9.7-1.8.6-3.3-.5-5.4-.9-1.6-1.2-3.9-.9-5.6.4-1.7.2-2.8-.4-2.8-.6 0-1 .3-.9.7zm105.1 63.1c1.8 1.6 2.4 4.8.6 3.6-.8-.4-.7 0 .1 1.5.6 1.2 1.5 1.9 2.1 1.6.5-.4 1.2.1 1.5.9.3.9 1.4 1.6 2.4 1.6 2.5 0 4.1 2.2 3 4-1.6 2.5-1.1 3.2 1.8 2.8 2.2-.2 2.6.1 2.4 1.6-.3 1.4.1 1.7 1.2 1.3 1.2-.5 1.6 0 1.6 1.9 0 1.4.8 3.3 1.8 4.2 1 1 1.2 1.3.5.8-2.2-1.4-3 .4-.9 2 1.9 1.3 1.9 1.4-.5 1.4-1.6 0-2.6.6-2.6 1.5 0 1.1.3 1.2 1.4.3 1.1-.9 1.6-.9 2.3.2.5.8.6 1.7.2 2-.4.3-.7 1.6-.7 3s-.5 2.4-1 2.3c-.6-.1-1.1.7-1.1 1.8 0 1 .4 1.9.8 1.9.5 0 .3.9-.4 2-.9 1.3-2.2 1.9-4.5 1.8-1.8-.1-3.6.2-4.1.7-.4.4.3.5 1.6.2 1.2-.3 2.2-.1 2.2.4 0 .9-2.1 1.3-5 1-1.3-.2-1.3-.1 0 .8.8.5 1.8.7 2.2.5.4-.3.8-.1.8.3 0 1.6-4.2 4.4-5.7 3.9-1-.4-1.3-.2-1 .7.3.8.1 2-.4 2.8-.7 1.2-.9 1.2-.9 0 0-1.1-.3-1.1-1.5-.1-1.3 1.1-1.4 1-.9-.4.3-.9.1-1.6-.5-1.6s-1.1.9-1.1 2c0 2.1-1.6 2.8-2.2.9-.3-.8-1-.6-2 .5-.9.9-2.3 1.6-3 1.6-1 0-.9.3.2 1 1 .7 1.1 1 .3 1.1-.7.1-1.8.2-2.3.3-.6 0-1.5.8-2.1 1.6-.9 1.2-1 1-.6-.8.3-1.2.1-2-.4-1.6-.5.3-.9 1.6-.9 2.9 0 1.6-.6 2.4-1.7 2.4-2.5 0-5.1.6-5.9 1.4-.4.4-.1.7.6.7s1 .3.6.7c-1 1.1-6.6 1.1-7.3 0-.4-.6-.1-.7.7-.2.8.5 1.1.4.6-.3-.8-1.4-3.6-.4-3.6 1.3 0 .7-1.1 1.3-2.5 1.4-5.6.4-6.3.6-5.9 1.3.3.4-.2.8-1.1.8-1 0-1.4.5-1 1.2.4.7.1.6-.7-.2-.7-.8-2.3-1.4-3.5-1.2-3 .4-3.2-3.4-.2-4.3 1.9-.6 1.9-.8.3-2-2.2-1.6-2.8-6.9-.7-6 .8.3 2 .5 2.6.5.7 0 .6.4-.3.9-.8.6-1.8.7-2.2.5-1.7-1.1-.7.3 1.9 2.5 1.8 1.7 2.4 1.9 2 .7-.5-1.2-.1-1.6 1.7-1.6 1.2 0 3-.8 4-1.9 1.5-1.6 1.5-1.9.1-3.1-2.1-1.7-1.9-3.3.4-2.5 1.1.3 2.2.2 2.5-.3.3-.5 1.7-.7 3.1-.4 1.4.2 2.5 0 2.5-.6s-.9-.8-2-.5c-1.6.4-2 0-2-2.1 0-1.8.5-2.6 1.8-2.6 1.4 0 1.5.2.2 1-.8.5-1.2 1-.7 1 1.7 0 2.3.2 3.4 1.2.8.6 1.7.2 2.8-1.6 2-3 1.3-4.5-1.8-4.1-5.8.7-8.2 2.5-7.2 5.5.7 2.2-.5 2.6-2.3.8-.9-.9-.9-1.5.1-2.6 1-1.2.9-1.4-.3-1-.8.3-1.5 1.5-1.4 2.7.1 2.3-1.1 2.8-2 .8-.3-.6-.3-.2 0 1 .6 2.6-.8 3-2.6.8-.7-.8-1.8-1.5-2.6-1.5-1 0-1 .5.1 2.7 1.7 3.3 0 4.7-2.2 1.7-1.2-1.6-1.3-1.6-1.3-.1 0 .9-.4 1.7-1 1.7-.5 0-.7.7-.4 1.5.4.8.3 1.5-.1 1.5-1 0-3-2.3-3.8-4.3-.5-1.5-1-1.6-2.6-.5-1.1.7-1.8 1.4-1.6 1.7.3.2 1.1-.1 1.8-.7 1.1-.9 1.3-.5 1.3 2.2-.1 3.1-.3 3.3-2.1 2.3-1.1-.6-2.3-1-2.7-.9-.4.1-.5-.5-.1-1.4.3-.8.2-1.4-.3-1.3-2.1.4-3.5-.2-2.9-1.1.3-.6-.1-.7-.9-.4-.9.3-1.6.1-1.6-.4 0-.6-1.1-2.3-2.5-3.7-1.4-1.4-2.2-2.5-1.7-2.5.5 0 1.5-1.1 2.2-2.5.7-1.3 1.7-2.2 2.3-1.8.5.3.4.9-.3 1.3-.9.5-.9.9-.1 1.4.6.4 1.1.2 1.1-.4 0-.6.5-.8 1.2-.4s.8.3.4-.4-.1-1.2.8-1.2 1.6-.5 1.6-1c0-.7.8-.7 2.3.1 1.2.6 1.9.8 1.5.5-.3-.4.2-1.6 1.3-2.7 2.2-2.2 3.3-2.5 2.4-.7-.4.7.1.4 1-.7s2.2-1.9 3-1.7c.7.1 2.2-.9 3.3-2.3 1.1-1.4 2.6-2.5 3.2-2.5.9 0 .6.8-.6 2.2l-1.9 2.3 2.2-1.8c1.3-1.1 1.9-2.5 1.6-3.5-.4-.9-.2-1.3.4-.9.6.4 1.3 0 1.7-.8.3-.8 1-1.5 1.7-1.5.6 0 .8.7.4 1.7-.4 1.3-.3 1.5.4.8s.8-2.2.2-4.2c-.7-2.5-.6-3 .8-3 3.1 0 3.9-.3 4.4-1.7.4-1.1-.1-1.5-1.6-1.4-1.2 0-3.5 0-5.2-.1-2.6-.2-2.7-.4-1-1 1.1-.5 2.5-.5 3.1 0 1.3 1.1 3.8-1.4 2.6-2.6-.4-.4.5 0 2 .9 2.6 1.7 2.6 1.7 2.1-.4-.3-1.1-1-2.3-1.6-2.7-.5-.3-.8-.2-.4.3.3.5-.5.9-1.8.9-1.7 0-2.1-.3-1.3-1.2.6-.7 1.4-1 1.9-.7.5.3.9-.1 1-.8 0-1 .2-1 .6 0 .7 1.9 2.3.4 2.3-2.4 0-1.3.5-2.4 1.1-2.4.6 0 .8.9.4 2.2-.4 1.6-.4 1.9.3.9.5-.7.8-3.6.6-6.3-.2-2.9 0-4.6.6-4.3.6.3 1 1.3 1 2.1s.5 1.4 1.1 1.4c.5 0 .7.4.4 1-.4.6.1.7 1.1.3 1.3-.5 1.6-.2 1.2.9-.4.8-.1 1.5.8 1.5.7 0 1-.5.7-1-.3-.6-.1-.7.5-.3.7.4 1.2 1.3 1.2 2.1 0 1.2.6 1.1 3.8-.1 5.1-2.1 6.5-3.8 6.5-7.4 0-1.8.5-3 1.4-3 .7 0 1.3-1.1 1.3-2.6 0-1.4-.4-2.3-.9-1.9-.5.3-1.2.1-1.5-.4-.7-1.1 2.3-2 3.9-1.3.6.3 1.8 1.2 2.8 2zm-27.1 10.7c-.2 1.4-.6 2.5-.8 2.5-.2 0-.4-1.1-.4-2.5s.4-2.5.9-2.5c.4 0 .6 1.1.3 2.5zm-3.4 5.6c-.7.5-3.1.8-5.3.8-3.1-.1-3.4-.3-1.7-.7 3.7-1.1 8.6-1.1 7-.1zM86.3 93c.9 1.1 1.3 2 .7 2-.5 0-1.4-.9-2-2-.6-1.1-.9-2-.8-2 .2 0 1.1.9 2.1 2zm7.2 1.8c-.3.3-1.1 0-1.8-.7-.9-1-.8-1.1.6-.5 1 .3 1.5.9 1.2 1.2zm-11 .2c.3.5.1 1-.4 1-.6 0-1.1-.5-1.1-1 0-.6.2-1 .4-1 .3 0 .8.4 1.1 1zm10.8 11.7c-.4 1.1-3.3 2.7-3.3 1.8 0-.2.7-1.1 1.6-1.9 1.4-1.4 1.4-1.7 0-2.2-1.2-.5-1.3-.9-.3-1.9 1-1 1.3-.9 1.8.9.3 1.1.4 2.6.2 3.3zm-4.6 3.9c-.3.3-1.2.4-1.9.1-.8-.3-.5-.6.6-.6 1.1-.1 1.7.2 1.3.5zm-3.4 2.9c-.3.9-.8 1.4-1 1.1-.3-.3-.2-.9.2-1.5.9-1.6 1.5-1.3.8.4zm65.2.5c.3.5.1 1-.4 1-.6 0-1.1-.5-1.1-1 0-.6.2-1 .4-1 .3 0 .8.4 1.1 1zM106 126.1c0 .5-.7.9-1.5.9-.9 0-1.5-.9-1.5-2.1 0-1.8.2-1.9 1.5-.9.8.7 1.5 1.6 1.5 2.1zm-17.2 6.4c-.3.3-.9-.2-1.2-1.2-.6-1.4-.5-1.5.5-.6.7.7 1 1.5.7 1.8zm4.8 2c1 .8 1.4 1.5.7 1.5-.6 0-1.5-.5-1.8-1-.3-.6-1.2-1-1.8-1-.7 0-.4.5.6 1.1 2.3 1.3 2.2 2.9-.2 2.9-2.3 0-3.4-2.3-1.8-3.9 1.4-1.4 1.9-1.4 4.3.4zM78.5 137c.3.5.1 1-.4 1-.6 0-1.1-.5-1.1-1 0-.6.2-1 .4-1 .3 0 .8.4 1.1 1zm4.5 37c0 .5-.5 1-1.1 1-.5 0-.7-.5-.4-1 .3-.6.8-1 1.1-1 .2 0 .4.4.4 1z"/><path d="M125.6 80.3c.3 1 .9 1.5 1.2 1.2.3-.3 0-1.1-.7-1.8-1-.9-1.1-.8-.5.6zM123.6 86.8c-.3.5.1.9.9.9s1.2-.4.9-.9c-.3-.4-.7-.8-.9-.8-.2 0-.6.4-.9.8zM120.9 99.4c-3.2 1.4-5.9 3.5-5.9 4.8 0 .5.7.2 1.6-.6.8-.9 2.4-2.1 3.4-2.6 2.2-1.2 10-1 10 .1 0 .5-1.2 2.2-2.7 3.8-3.1 3.4-8.1 4.4-10.7 2.2-2-1.7-3.3-.7-1.7 1.3 1.7 2 9.1 1.4 12.4-1 3.1-2.2 4.5-6 2.8-7.7-1.5-1.5-6-1.7-9.2-.3z"/><path d="M124 103.1c0 .6-.6.9-1.3.6-.7-.3-2.1.1-3.2.9-1 .8-1.4 1.4-.8 1.4.7 0 1.4-.4 1.8-1 .3-.5 1.2-.7 1.9-.4.7.3 1.9-.2 2.6-1.1.8-1 .9-1.5.1-1.5-.6 0-1.1.5-1.1 1.1zM145 118.1c0 .5.5.7 1 .4.6-.3 1-.8 1-1.1 0-.2-.4-.4-1-.4-.5 0-1 .5-1 1.1zM111.4 139.2l-1.9 2.3 2.1-1.8c1.7-1.4 2.3-1.5 2.7-.5.4.8.6.7.6-.5.1-2.3-1.2-2.1-3.5.5z"/></svg>